<?xml version="1.0" standalone="no"?>
<!DOCTYPE svg PUBLIC "-//W3C//DTD SVG 20010904//EN"
 "http://www.w3.org/TR/2001/REC-SVG-20010904/DTD/svg10.dtd">
<svg version="1.0" xmlns="http://www.w3.org/2000/svg"
 width="773.000000pt" height="568.000000pt" viewBox="0 0 773.000000 568.000000"
 preserveAspectRatio="xMidYMid meet">

<g transform="translate(0.000000,568.000000) scale(0.100000,-0.100000)"
fill="#000000" stroke="none">
<path d="M1823 5234 c-21 -55 68 -826 107 -929 12 -31 430 -236 430 -211 0 3
-12 31 -26 63 -15 32 -28 70 -30 86 -2 15 -13 53 -24 84 -11 31 -19 58 -17 59
5 5 126 -18 170 -32 26 -9 51 -14 56 -12 5 2 54 71 110 153 55 83 138 196 185
253 117 141 115 137 65 162 -57 30 -286 117 -464 178 -167 57 -518 162 -541
162 -8 0 -17 -7 -21 -16z"/>
<path d="M5025 5196 c-434 -127 -845 -283 -845 -320 0 -8 35 -54 77 -103 89
-102 162 -199 252 -336 36 -53 69 -97 75 -97 6 0 47 11 91 25 82 26 115 31
115 18 0 -17 -50 -193 -69 -243 -11 -30 -19 -56 -16 -58 2 -2 87 36 188 86
101 49 193 93 205 96 31 10 47 70 81 296 41 269 78 647 67 675 -8 22 -22 19
-221 -39z"/>
<path d="M3248 5078 c-151 -150 -276 -295 -386 -450 -106 -150 -202 -307 -202
-331 0 -18 48 -45 91 -50 25 -2 26 -2 85 133 114 259 277 508 510 778 20 23
34 42 32 42 -3 0 -61 -55 -130 -122z"/>
<path d="M3430 5048 c-123 -145 -172 -211 -250 -333 -109 -171 -259 -496 -246
-531 3 -7 22 -20 42 -29 77 -32 78 -32 130 37 26 35 87 104 134 154 48 50 121
138 164 195 120 161 127 170 135 165 5 -3 48 -61 97 -128 48 -68 131 -168 184
-223 53 -55 115 -126 138 -157 46 -62 62 -77 62 -55 0 10 7 13 18 10 11 -2 35
2 55 11 29 12 37 21 37 40 0 86 -195 466 -329 641 -65 85 -263 314 -271 314
-3 0 -48 -50 -100 -111z"/>
<path d="M3730 5156 c0 -5 22 -35 48 -65 138 -160 283 -367 362 -516 29 -55
64 -120 79 -145 14 -25 26 -52 27 -61 1 -9 13 -42 27 -73 29 -64 27 -63 117
-24 41 17 43 21 28 32 -10 7 -18 18 -18 24 0 15 -210 327 -275 407 -132 164
-395 444 -395 421z"/>
<path d="M850 4463 c0 -38 40 -326 70 -498 68 -396 154 -675 269 -875 5 -8 18
-37 31 -65 26 -59 118 -197 209 -315 104 -133 320 -340 355 -340 7 0 29 -15
48 -33 46 -43 183 -136 343 -232 119 -72 475 -252 535 -270 16 -5 -82 102
-260 284 -438 450 -505 525 -607 686 -111 175 -208 390 -363 805 -123 330
-246 620 -297 702 -24 40 -93 80 -223 130 -103 41 -110 42 -110 21z"/>
<path d="M6160 4464 c-14 -7 -69 -32 -124 -55 -56 -24 -112 -56 -130 -74 -17
-17 -49 -71 -70 -120 -21 -50 -57 -128 -79 -175 -45 -96 -97 -228 -186 -475
-111 -304 -243 -591 -348 -753 -121 -189 -236 -320 -631 -725 -134 -137 -242
-251 -239 -253 6 -6 344 162 502 249 205 113 460 292 579 407 353 342 568 746
676 1275 75 364 115 703 85 711 -5 1 -21 -4 -35 -12z"/>
<path d="M3497 4433 c-14 -21 -73 -90 -131 -153 -98 -106 -183 -216 -174 -225
2 -2 42 -25 88 -51 47 -25 122 -71 168 -100 l82 -54 161 97 c89 54 164 104
167 111 8 23 -23 73 -100 159 -40 45 -106 119 -147 165 -41 46 -78 84 -81 86
-4 1 -18 -14 -33 -35z"/>
<path d="M5603 4264 c-318 -54 -735 -243 -1048 -474 -49 -37 -126 -86 -170
-110 -321 -172 -627 -394 -965 -699 -191 -173 -810 -783 -810 -799 0 -20 283
-300 451 -447 94 -82 167 -135 284 -204 86 -51 166 -96 176 -98 29 -8 328 167
429 251 114 95 724 704 892 891 165 184 246 299 333 475 15 30 33 62 40 70 17
20 168 387 256 623 40 106 103 263 141 350 38 86 68 163 66 170 -2 10 -17 11
-75 1z"/>
<path d="M1390 4263 c0 -13 43 -118 95 -233 23 -52 64 -156 90 -230 91 -257
267 -685 290 -705 6 -5 15 -23 19 -39 4 -16 20 -41 36 -57 16 -16 26 -29 24
-29 -13 0 55 -110 120 -197 136 -179 417 -483 446 -483 17 1 900 871 900 888
0 12 -195 161 -375 289 -55 39 -175 113 -267 166 -92 53 -229 139 -304 192
-209 146 -351 222 -584 315 -177 70 -490 149 -490 123z"/>
<path d="M2511 4143 c5 -16 33 -70 61 -121 53 -95 141 -192 174 -192 10 0 27
-9 38 -19 12 -11 95 -65 186 -121 179 -110 350 -229 450 -314 34 -29 75 -61
91 -70 l28 -16 156 125 c87 70 164 129 174 132 9 3 45 27 81 53 36 26 115 76
175 110 154 88 279 175 310 216 33 43 125 214 125 232 0 16 -5 15 -170 -45
-330 -119 -420 -163 -696 -335 -78 -48 -153 -88 -166 -88 -14 0 -75 35 -145
83 -154 106 -441 246 -680 331 -100 37 -187 66 -192 66 -7 0 -7 -9 0 -27z"/>
<path d="M1390 2503 c0 -5 11 -20 25 -33 14 -13 25 -19 25 -13 0 5 -11 20 -25
33 -14 13 -25 19 -25 13z"/>
<path d="M5554 2397 c-328 -304 -848 -606 -1344 -782 -115 -41 -204 -87 -410
-210 -74 -45 -164 -97 -200 -117 l-65 -36 -279 159 c-162 92 -319 174 -375
195 -282 108 -368 144 -496 209 -256 130 -572 331 -771 491 -64 52 -119 92
-121 90 -3 -2 3 -15 11 -29 9 -13 28 -78 41 -144 74 -356 238 -677 471 -922
48 -51 121 -118 163 -149 94 -71 270 -169 369 -207 198 -74 446 -104 709 -85
293 22 333 22 429 10 141 -17 489 -15 592 5 469 90 865 419 1097 910 78 164
152 394 139 429 -3 8 1 23 10 31 9 9 16 28 16 41 0 40 24 87 74 143 41 46 52
62 44 61 -2 0 -48 -42 -104 -93z"/>
</g>
</svg>
